<svg xmlns="http://www.w3.org/2000/svg" xmlns:xlink="http://www.w3.org/1999/xlink" width="240" height="240" viewBox="0 0 240 240">
  <defs>
    <clipPath id="clip-path">
      <circle id="Ellipse_1237" data-name="Ellipse 1237" cx="120" cy="120" r="120" transform="translate(8315 -747)" fill="#fff"/>
    </clipPath>
    <filter id="Rectangle_DS" x="-12.6" y="-12.6" width="271.2" height="271.2" filterUnits="userSpaceOnUse">
      <feOffset dx="3" dy="3" input="SourceAlpha"/>
      <feGaussianBlur stdDeviation="10" result="blur"/>
      <feFlood flood-color="#24415d" flood-opacity="0.302"/>
      <feComposite operator="in" in2="blur"/>
      <feComposite in="SourceGraphic"/>
    </filter>
    <clipPath id="clip-path-2">
      <path id="Rectangle_325" d="M0,0H149.621V149.621H0Z" transform="translate(0 0)" fill="#fff"/>
    </clipPath>
  </defs>
  <g id="Mask_Group_67" data-name="Mask Group 67" transform="translate(-8315 747)" clip-path="url(#clip-path)">
    <g id="Group_9862" data-name="Group 9862" transform="translate(8315 -747)">
      <g id="Fingerprint_button" data-name="Fingerprint button" transform="translate(0 0)">
        <g transform="matrix(1, 0, 0, 1, 0, 0)" filter="url(#Rectangle_DS)">
          <rect id="Rectangle_DS-2" data-name="Rectangle DS" width="211.2" height="211.2" rx="80" transform="translate(14.4 14.4)" fill="#edeef2"/>
        </g>
        <rect id="Rectangle_WS" data-name="Rectangle WS" width="240" height="240" rx="120" fill="#fff"/>
      </g>
      <g id="Mask_Group_179" transform="translate(46.221 57.274)" clip-path="url(#clip-path-2)">
        <g id="Group_314" transform="translate(-0.14 -0.254)">
          <path id="Subtraction_3" d="M71.381,125.714a3.072,3.072,0,0,1-2.516-1.46,1.6,1.6,0,0,1,.269-2.477,11.927,11.927,0,0,1,1.4-.97c.155-.1.308-.191.46-.289,1.159-.748,2.34-1.505,3.482-2.236l.012-.008.013-.009,1.679-1.076.2-.127a6.062,6.062,0,0,0,.549-.373c.132-.105.332-.263.2-.5a.415.415,0,0,0-.369-.242.552.552,0,0,0-.269.077c-.32.176-.63.382-.93.58l-.089.058q-1.08.71-2.157,1.425c-1.47.973-2.989,1.982-4.5,2.949a2.972,2.972,0,0,1-1.6.536,2.544,2.544,0,0,1-2.063-1.24,2.081,2.081,0,0,1,.105-2.835,5.953,5.953,0,0,1,1.509-1.161l.033-.02,1.152-.7c1.6-.977,3.252-1.982,4.868-3,.054-.035.117-.068.182-.105.24-.133.511-.282.563-.5a.523.523,0,0,0-.442-.565,1.111,1.111,0,0,0-.595.3c-.075.058-.147.113-.215.157-.9.571-1.806,1.158-2.685,1.727-1.189.772-2.422,1.566-3.64,2.331a3.219,3.219,0,0,1-1.684.536,2.455,2.455,0,0,1-2.358-2.127,2.081,2.081,0,0,1,1.141-2.346c.822-.526,1.657-1.056,2.464-1.57.983-.624,1.995-1.266,2.985-1.9.08-.052.162-.1.248-.151a2.359,2.359,0,0,0,.961-.859,1.216,1.216,0,0,0-.545-.143,1.464,1.464,0,0,0-.776.288c-.072.045-.141.086-.211.124l-.962.513c-1.341.713-2.727,1.453-4.063,2.228a1.471,1.471,0,0,1-.746.224,1.982,1.982,0,0,1-1.17-.51,1.288,1.288,0,0,1-.373-1.72c.185-.409.4-.682.814-.682a1.74,1.74,0,0,1,.579.122,4.349,4.349,0,0,0,1.478.267,3.778,3.778,0,0,0,3.782-3.6.87.87,0,0,1,.551-.768,8.236,8.236,0,0,0,1.576-1.139,2.477,2.477,0,0,0,.743-3.06c-.165-.354-.249-.61-.152-.8.086-.168.312-.279.753-.373a5.063,5.063,0,0,0,2.709-1.8,1.784,1.784,0,0,0,.2-2.308,9.6,9.6,0,0,0-2.56-2.874c-.329-.239-.52-.413-.524-.595s.184-.367.512-.626a28.783,28.783,0,0,0,6.392-6.837A1.486,1.486,0,0,1,79,82.8c2.792-.283,6.479-.664,10.233-1.106,1.135-.133,2.251-.311,3.433-.5.526-.083,1.07-.17,1.622-.254.023,1.538-.046,3.1-.111,4.611-.15,3.446-.305,7.008.611,10.471a.572.572,0,0,1-.368.133,1.364,1.364,0,0,1-.451-.108c-.058-.021-.115-.042-.17-.058a30.494,30.494,0,0,1-6.009-2.361,2.636,2.636,0,0,0-1.278-.362,2.37,2.37,0,0,0-1.814.936,3.963,3.963,0,0,0-.877,3.986,9.3,9.3,0,0,0,3.914,4.917,2.241,2.241,0,0,1,1.1,2.461,29.1,29.1,0,0,1-1.992,7.531,26.377,26.377,0,0,1-4.081,6.687,3.791,3.791,0,0,1-1.151.934c-1.108.587-2.23,1.189-3.317,1.77-1.7.911-3.455,1.85-5.192,2.755a3.732,3.732,0,0,1-1.719.462Zm63.872-15.034c-.246,0-.537-.2-1.03-.542-5.414-3.8-11.552-8.112-17.572-12.354-.119-.084-.226-.158-.321-.223-.774-.53-.774-.53-.265-1.477l.141-.262c4.512-8.5,8.856-16.845,12.412-25.4a32.834,32.834,0,0,0,2.218-6.871A11.91,11.91,0,0,0,130.678,58a6.323,6.323,0,0,0-2.029-3.221,5.16,5.16,0,0,0-3.381-1.374,5.52,5.52,0,0,0-1.348.177,39.371,39.371,0,0,0-11.941,4.92c-4.418,2.836-8.876,5.549-13.435,8.3a2.116,2.116,0,0,0-1.21,2.11c.055,2.468.043,4.979.03,7.408v.031q0,.922-.009,1.846c0,1.051,0,1.09-1.134,1.256-2.427.357-4.894.707-7.281,1.045l-4.115.586c-.711.1-1.435.211-2.133.315-2.146.321-4.366.654-6.566.861a1.372,1.372,0,0,0-.573.169c-1.3.778-2.614,1.576-3.885,2.349l-.991.6a16.329,16.329,0,0,0-1.526.584c-.474.2-.963.406-1.463.565a15.356,15.356,0,0,0-2.27.611c-.4.129-.807.263-1.215.376a62.653,62.653,0,0,1-6.972,1.4,3.337,3.337,0,0,1-.522.039,7.729,7.729,0,0,1-1.2-.126c-.223-.036-.454-.071-.682-.1a56.61,56.61,0,0,1-18.51-4.793c-6.4-3.015-11.037-7.026-14.169-12.262a23.141,23.141,0,0,1-3.5-12.322c.073-9.836.057-19.836.044-29.508q-.008-4.919-.012-9.836c0-.211,0-.4,0-.56.009-.595.014-.892-.142-1.042-.137-.136-.387-.158-.934-.158H1.436C.02,18.252.006,18.239,0,16.877,0,11.705,0,6.45,0,1.267.008.021.021.009,1.377.008H131.571c.245,0,.461,0,.652,0h.407c.462,0,.722.026.862.163.171.169.166.507.156,1.181,0,.209-.007.447-.006.722.01,3.562.008,7.179,0,10.678v3.871c0,.352,0,.715-.022,1.073a.543.543,0,0,1-.573.558c-.467.017-.931.019-1.365.019H98.555c-.152,0-.284,0-.4-.008h-.077a.74.74,0,0,0-.565.187.752.752,0,0,0-.151.605,1.608,1.608,0,0,1,0,.189v.1q0,10.683.008,21.367A1.61,1.61,0,0,0,97.4,41c.009.048.018.1.024.145a.841.841,0,0,0,.274.048,1.36,1.36,0,0,0,.707-.271c.089-.055.18-.112.272-.157a47.964,47.964,0,0,1,14.34-4.581,35.626,35.626,0,0,1,5.091-.378,30.032,30.032,0,0,1,12.249,2.56,6.6,6.6,0,0,1,1.57.887,53.146,53.146,0,0,1,9.866,10.534,43.075,43.075,0,0,1,6.131,12.925,33.713,33.713,0,0,1-.232,19.333,185.018,185.018,0,0,1-7.552,20.975,41.657,41.657,0,0,1-2.648,5.131,14.817,14.817,0,0,1-1.316,1.8C135.726,110.471,135.517,110.68,135.254,110.68ZM42.082,18.133c-.595,0-.885.016-1.035.165s-.154.454-.144,1.046c0,.163.006.349.006.559V60.989c0,.449-.011.906-.022,1.347-.018.717-.036,1.459-.007,2.186a5.791,5.791,0,0,0,4.38,5.56,11.541,11.541,0,0,0,3.417.518,11.876,11.876,0,0,0,1.674-.119A28.352,28.352,0,0,0,60.235,66.9,64.29,64.29,0,0,0,74.583,55.665a2.68,2.68,0,0,0,.844-2.081c-.025-4.233-.022-8.536-.019-12.7V19.312c0-.576.008-.865-.149-1.019s-.444-.164-1.073-.164h-32.1Z" transform="translate(-0.001 -0.003)" fill="#018b41"/>
          <g id="Group_313" transform="translate(59.189 85.387)">
            <path id="Path_2978" d="M-1027.6,201.477c-.063-.119-.115-.169-.1-.206.526-2.081-.433-3.468-2.1-4.6a27.754,27.754,0,0,1-2.4-2.081l3.589-1.7,3.4-1.61c.5.324.409,1.009.9,1.308a.592.592,0,0,0,.563.11.317.317,0,0,0,.174-.223.32.32,0,0,0-.074-.272c-.627-.892-.121-1.471.448-2.18a49.4,49.4,0,0,0,5.7-8.9,18.35,18.35,0,0,0,1.518-6.754c.123-1.444.1-1.445,1.646-2.021l-1.233-.539a10.737,10.737,0,0,1-3.989-2.858,6.83,6.83,0,0,1-1.531-3.648,2.225,2.225,0,0,1,.9-2.23c.676-.483,1.4-.2,2.115.138q4.213,2,8.466,3.906c.549.248.861.477.9,1.16.184,3.261.434,6.517.694,9.773a3.161,3.161,0,0,1-.708,2.326,25.777,25.777,0,0,0-2.787,4.4,4.757,4.757,0,0,0-.509,2.576c.307,3.8.556,7.595.847,11.395.049.632-.149.88-.817.912-4.169.2-8.295.806-12.426,1.353-1.043.129-2.08.3-3.184.468Z" transform="translate(1046.732 -153.768)"/>
            <path id="Path_2979" d="M-1007.9,223.446c.029.341.058.535.058.728v15.91c0,1.129-.018,1.148-1.154,1.148q-9.822.01-19.643,0c-1.151,0-1.168-.019-1.17-1.131q-.01-6.54,0-13.085c0-1.014.021-1.028,1.09-1.152q9.373-1.09,18.745-2.161c.648-.075,1.294-.16,2.073-.257Z" transform="translate(1045.846 -176.813)"/>
            <path id="Path_2980" d="M-1039.25,160.891c.046,1.949-1.822,3.515-3.406,3.106a11.046,11.046,0,0,1-4.4-2.5,2.438,2.438,0,0,1-.595-3,3.111,3.111,0,0,1,2.813-1.9,2.083,2.083,0,0,1,1.261.4c1.05.768,2.116,1.511,3.161,2.279a2.663,2.663,0,0,1,1.166,1.6Z" transform="translate(1052.54 -151.412)"/>
            <path id="Path_2981" d="M-1046.735,172.629a1.231,1.231,0,0,1-.5-.065,15.308,15.308,0,0,1-4.285-3.171,1.561,1.561,0,0,1-.068-1.818,5.039,5.039,0,0,1,1.128-1.375,1.591,1.591,0,0,1,1.079-.613,1.591,1.591,0,0,1,1.191.348q1.573.866,3.117,1.784c1.214.726,1.721,1.676,1.459,2.648A3.388,3.388,0,0,1-1046.735,172.629Z" transform="translate(1053.99 -154.824)"/>
            <path id="Path_2982" d="M-1051.02,180.458a4.762,4.762,0,0,1-4.183-3.337c-.243-1.045.433-1.677,1.111-2.279a1.427,1.427,0,0,1,1.926.025c.916.612,1.834,1.231,2.8,1.763a1.958,1.958,0,0,1,1.135,2.07c-.1.942-.838,1.282-1.6,1.593A3.022,3.022,0,0,1-1051.02,180.458Z" transform="translate(1055.253 -158.204)"/>
            <path id="Path_2983" d="M-1041.883,149.446a2.975,2.975,0,0,1,2.979-1.159,4.046,4.046,0,0,1,2.353,1.218c.417.446.5.788-.059,1.207-1.036.785-2.018,1.637-3.046,2.431-.685.53-.946.5-1.5-.161C-1042.036,151.94-1042.572,150.808-1041.883,149.446Z" transform="translate(1050.425 -148.229)"/>
          </g>
        </g>
      </g>
    </g>
  </g>
</svg>
